<?xml version="1.0" standalone="no"?>
<!DOCTYPE svg PUBLIC "-//W3C//DTD SVG 20010904//EN"
 "http://www.w3.org/TR/2001/REC-SVG-20010904/DTD/svg10.dtd">
<svg version="1.0" xmlns="http://www.w3.org/2000/svg"
 width="86.000000pt" height="86.000000pt" viewBox="0 0 86.000000 86.000000"
 preserveAspectRatio="xMidYMid meet">
<metadata>
Created by potrace 1.14, written by Peter Selinger 2001-2017
</metadata>
<g transform="translate(0.000000,86.000000) scale(0.100000,-0.100000)"
fill="#000000" stroke="none">
<path d="M307 645 c-70 -118 -127 -216 -127 -219 0 -5 246 -156 254 -156 18 0
256 154 253 164 -3 6 -48 83 -100 171 -53 88 -109 181 -124 207 l-28 48 -128
-215z m128 9 l-1 -96 -79 -43 c-44 -24 -83 -44 -87 -45 -3 0 25 53 64 118 79
132 97 162 101 162 2 0 3 -43 2 -96z"/>
<path d="M96 719 l-87 -82 28 -29 c40 -43 80 -61 119 -55 22 4 37 1 45 -9 6
-8 14 -14 18 -14 10 0 45 64 41 75 -1 6 -2 29 -1 52 1 23 -5 55 -13 70 -17 30
-51 73 -59 73 -2 0 -43 -37 -91 -81z m133 -72 c-5 -20 -20 -43 -32 -52 -27
-19 -78 -19 -103 0 -18 14 -16 18 51 81 l70 66 12 -30 c9 -21 9 -40 2 -65z"/>
<path d="M650 768 c-14 -17 -28 -40 -32 -50 -13 -33 -7 -131 10 -160 19 -32
25 -34 41 -14 8 10 23 13 45 9 39 -6 79 12 119 55 l28 29 -88 81 c-48 45 -90
82 -93 82 -3 0 -16 -14 -30 -32z m98 -112 c52 -50 52 -50 30 -63 -83 -45 -167
29 -135 120 11 32 5 35 105 -57z"/>
<path d="M92 323 c-19 -109 5 -203 64 -248 65 -50 174 -89 188 -67 9 15 -15
99 -37 129 -97 132 -91 125 -100 105 -6 -13 -2 -34 12 -65 27 -60 27 -71 -1
-56 -65 35 -92 85 -92 177 -1 94 -19 107 -34 25z"/>
<path d="M741 300 c1 -89 -10 -116 -68 -165 -28 -23 -34 -24 -39 -11 -3 9 1
27 9 39 16 24 21 47 18 82 -2 19 -3 18 -19 -5 -9 -13 -34 -44 -55 -68 -21 -24
-43 -64 -49 -88 -7 -24 -15 -44 -20 -44 -4 0 -2 15 3 32 14 43 42 98 50 98 4
0 22 22 40 50 19 27 40 50 47 50 21 0 19 -68 -4 -112 -8 -16 -10 -28 -5 -28
16 0 47 52 60 100 11 41 11 124 -1 135 -2 2 -64 -32 -138 -76 -73 -44 -138
-78 -144 -76 -6 3 -67 39 -135 80 -68 42 -128 74 -133 71 -25 -16 3 -177 38
-215 24 -27 39 -24 21 5 -21 31 -30 88 -17 106 11 16 8 19 90 -80 39 -48 60
-91 60 -126 0 -14 7 -27 15 -30 23 -9 107 -9 133 0 17 6 22 4 22 -10 0 -14 7
-16 41 -10 91 15 187 85 210 153 22 68 11 223 -17 223 -11 0 -14 -17 -13 -80z"/>
</g>
</svg>
