<svg width="42" height="42" viewBox="0 0 42 42" fill="none" xmlns="http://www.w3.org/2000/svg">
<g id="close-circle-svgrepo-com (1) 1">
<path id="Vector" opacity="0.5" d="M38.5 21C38.5 30.6649 30.6649 38.5 21 38.5C11.335 38.5 3.5 30.6649 3.5 21C3.5 11.335 11.335 3.5 21 3.5C30.6649 3.5 38.5 11.335 38.5 21Z" fill="white"/>
<path id="Vector_2" d="M15.6969 15.6969C16.2095 15.1844 17.0405 15.1844 17.553 15.6969L21 19.1439L24.447 15.697C24.9595 15.1844 25.7904 15.1844 26.303 15.697C26.8156 16.2095 26.8156 17.0406 26.303 17.5532L22.8562 21L26.303 24.4468C26.8156 24.9594 26.8156 25.7904 26.303 26.303C25.7904 26.8156 24.9594 26.8156 24.4468 26.303L21 22.8562L17.5532 26.303C17.0406 26.8156 16.2095 26.8156 15.697 26.303C15.1844 25.7904 15.1844 24.9595 15.697 24.447L19.1439 21L15.6969 17.553C15.1844 17.0405 15.1844 16.2095 15.6969 15.6969Z" fill="white"/>
</g>
</svg>
