<svg width="8" height="8" viewBox="0 0 8 8" fill="none" xmlns="http://www.w3.org/2000/svg">
<path d="M0.969668 0.969668C1.26256 0.676777 1.73744 0.676777 2.0303 0.969668L4 2.9394L5.9697 0.969688C6.2626 0.676798 6.7374 0.676798 7.0303 0.969688C7.3232 1.26258 7.3232 1.73746 7.0303 2.0304L5.0607 4L7.0303 5.9696C7.3232 6.2625 7.3232 6.7374 7.0303 7.0303C6.7374 7.3232 6.2625 7.3232 5.9696 7.0303L4 5.0607L2.0304 7.0303C1.73746 7.3232 1.26258 7.3232 0.969688 7.0303C0.676798 6.7374 0.676798 6.2626 0.969688 5.9697L2.9394 4L0.969668 2.0303C0.676777 1.73744 0.676777 1.26256 0.969668 0.969668Z" fill="black"/>
</svg>
