<svg width="18" height="18" viewBox="0 0 18 18" fill="none" xmlns="http://www.w3.org/2000/svg">
<g id="edit-3-svgrepo-com 1" clip-path="url(#clip0_442_2888)">
<path id="Vector (Stroke)" fill-rule="evenodd" clip-rule="evenodd" d="M14.6314 2.18532C14.7914 2.18196 14.9505 2.21105 15.099 2.27085L14.6314 2.18532ZM14.5998 0.685653C14.9624 0.678024 15.3229 0.743936 15.6594 0.879457C15.9959 1.01497 16.3014 1.21728 16.5575 1.47413C16.8136 1.73093 17.0151 2.03698 17.1497 2.37389L17.1497 2.3739C17.2842 2.71057 17.3493 3.07116 17.3406 3.43395C17.332 3.79669 17.2498 4.15377 17.0995 4.48365L17.0995 4.48382C16.9516 4.8081 16.7407 5.09975 16.479 5.3417L9.33525 12.4854C9.05783 12.7628 8.68966 12.9635 8.33645 13.1064C7.97343 13.2533 7.57358 13.3602 7.18788 13.4243C6.80476 13.488 6.40828 13.514 6.05366 13.4826C5.74339 13.4552 5.28993 13.3708 4.97457 13.0554C4.66002 12.7408 4.57455 12.2885 4.54634 11.9782C4.51412 11.6238 4.53896 11.2273 4.6016 10.8441C4.66465 10.4583 4.77051 10.0582 4.91667 9.69491C5.05888 9.34142 5.25916 8.97265 5.53707 8.69473L6.06116 9.21882L5.53707 8.69473L12.689 1.54284C12.9317 1.28147 13.2242 1.07105 13.5493 0.923916M14.5998 0.685653L14.5998 0.685653L14.5998 0.685653ZM14.6314 2.18532C14.4713 2.18869 14.3136 2.22447 14.1678 2.29047L14.1677 2.2905C14.0219 2.35649 13.891 2.45133 13.7828 2.56934C13.7755 2.57736 13.7679 2.58522 13.7603 2.59291L6.59773 9.75539C6.5194 9.83373 6.41217 9.99652 6.30828 10.2547C6.20836 10.5031 6.12953 10.7949 6.08196 11.086C6.03397 11.3797 6.02225 11.6451 6.04018 11.8424C6.04522 11.8979 6.05182 11.94 6.05804 11.9711C6.08894 11.9772 6.13076 11.9836 6.18568 11.9884C6.38278 12.0059 6.64818 11.9934 6.94195 11.9446C7.23312 11.8962 7.52515 11.8165 7.77386 11.7159C8.03237 11.6113 8.19577 11.5036 8.27459 11.4247L8.77373 11.9239L8.27459 11.4247L15.4296 4.26977C15.4378 4.26159 15.4461 4.25361 15.4547 4.24582C15.5729 4.13806 15.6681 4.00741 15.7345 3.86173C15.801 3.71588 15.8372 3.55818 15.841 3.39823C15.8448 3.23835 15.8162 3.07919 15.7567 2.93036L16.4532 2.65213L15.7567 2.93037C15.7567 2.93037 15.7567 2.93036 15.7567 2.93036C15.6974 2.78178 15.6084 2.64669 15.4954 2.53329C15.3823 2.41994 15.2475 2.33065 15.099 2.27085M14.5998 0.685653C14.2372 0.693291 13.8798 0.774349 13.5494 0.92388L14.5998 0.685653Z" fill="currentColor"/>
<path id="Vector (Stroke)_2" fill-rule="evenodd" clip-rule="evenodd" d="M1.84839 3.34835C2.55165 2.64509 3.50543 2.25 4.5 2.25H8.25C8.66421 2.25 9 2.58579 9 3C9 3.41421 8.66421 3.75 8.25 3.75H4.5C3.90327 3.75 3.33102 3.98704 2.90906 4.409C2.48708 4.83099 2.25 5.40329 2.25 6V13.5C2.25 14.0967 2.48708 14.669 2.90904 15.091L2.90907 15.091C3.33103 15.513 3.90326 15.75 4.5 15.75H12.75C13.3374 15.75 13.6583 15.5305 13.8687 15.2085C14.1108 14.838 14.25 14.2558 14.25 13.5V9.75C14.25 9.33579 14.5858 9 15 9C15.4142 9 15.75 9.33579 15.75 9.75V13.5C15.75 14.3942 15.5929 15.312 15.1244 16.029C14.6242 16.7945 13.8201 17.25 12.75 17.25H4.5C3.50543 17.25 2.55165 16.8549 1.84837 16.1516C1.14514 15.4484 0.75 14.4946 0.75 13.5V6C0.75 5.0054 1.14516 4.05159 1.84839 3.34835L1.84839 3.34835Z" fill="currentColor"/>
</g>
<defs>
<clipPath id="clip0_442_2888">
<rect width="18" height="18" fill="white"/>
</clipPath>
</defs>
</svg>
