<svg width="51" height="51" viewBox="0 0 51 51" fill="none" xmlns="http://www.w3.org/2000/svg">
<path d="M50.425 43.3857C50.425 47.2218 47.3167 50.3301 43.4805 50.3301H7.36943C3.53471 50.3301 0.424988 47.2218 0.424988 43.3857V7.27455C0.424988 3.43844 3.53471 0.330109 7.36943 0.330109H43.4805C47.3167 0.330109 50.425 3.43844 50.425 7.27455V43.3857Z" fill="#0288D1"/>
<path d="M8.75832 18.3856H15.7028V41.9968H8.75832V18.3856ZM12.2097 15.6079H12.1708C10.0986 15.6079 8.75832 14.0634 8.75832 12.1343C8.75832 10.1634 10.1403 8.66342 12.25 8.66342C14.3625 8.66342 15.6639 10.1634 15.7028 12.1343C15.7028 14.062 14.3625 15.6079 12.2097 15.6079ZM42.0916 41.9968H35.1472V29.3593C35.1472 26.3065 33.4458 24.2231 30.7139 24.2231C28.6291 24.2231 27.5014 25.6287 26.9541 26.987C26.7541 27.4731 26.8139 28.8176 26.8139 29.4968V41.9968H19.8694V18.3856H26.8139V22.019C27.8153 20.469 29.3833 18.3856 33.3944 18.3856C38.3639 18.3856 42.0903 21.5106 42.0903 28.4884L42.0916 41.9968Z" fill="white"/>
</svg>
