<svg width="16" height="16" viewBox="0 0 16 16" fill="none" xmlns="http://www.w3.org/2000/svg">
<g id="open-in-new-svgrepo-com 1">
<path id="Vector" fill-rule="evenodd" clip-rule="evenodd" fill="white" d="M3.33398 1.33325H4.66732C5.03551 1.33325 5.33398 1.63173 5.33398 1.99992C5.33398 2.34181 5.07662 2.62359 4.74506 2.6621L4.66732 2.66659H3.33398C2.99209 2.66659 2.71031 2.92395 2.6718 3.2555L2.66732 3.33325V12.6666C2.66732 13.0085 2.92468 13.2903 3.25624 13.3288L3.33398 13.3333H12.6673C13.0092 13.3333 13.291 13.0759 13.3295 12.7443L13.334 12.6666V11.3333C13.334 10.9651 13.6325 10.6666 14.0007 10.6666C14.3425 10.6666 14.6243 10.9239 14.6628 11.2555L14.6673 11.3333V12.6666C14.6673 13.7317 13.8347 14.6024 12.7848 14.6632L12.6673 14.6666H3.33398C2.26886 14.6666 1.39821 13.834 1.33738 12.7841L1.33398 12.6666V3.33325C1.33398 2.26813 2.1666 1.39748 3.21647 1.33665L3.33398 1.33325ZM14.0007 1.33325L14.0547 1.33525L14.1345 1.34675L14.2087 1.36641L14.2828 1.3957L14.3478 1.43058L14.4118 1.47511L14.4721 1.52851L14.5364 1.60305L14.5842 1.67721L14.6049 1.71785L14.6274 1.77215L14.6434 1.82259L14.6627 1.92119L14.6673 1.99992V5.99992C14.6673 6.36811 14.3688 6.66658 14.0007 6.66658C13.6325 6.66658 13.334 6.36811 13.334 5.99992V3.60925L9.13872 7.80466C8.8984 8.04498 8.52025 8.06347 8.25872 7.86012L8.19591 7.80466C7.95559 7.56433 7.9371 7.18618 8.14045 6.92465L8.19591 6.86185L12.39 2.66659H10.0007C9.63246 2.66659 9.33398 2.36811 9.33398 1.99992C9.33398 1.63173 9.63246 1.33325 10.0007 1.33325H14.0007Z"/>
</g>
</svg>
