<svg width="43" height="43" viewBox="0 0 43 43" fill="none" xmlns="http://www.w3.org/2000/svg">
<path fill-rule="evenodd" clip-rule="evenodd" d="M35.0186 24.3364C35.3019 25.4579 35.4475 26.6366 35.4475 27.8481C35.4475 30.7048 34.622 33.3652 33.2058 35.5998C32.5664 36.2219 31.9271 36.6803 31.4658 36.6885C31.5305 36.1319 32.5098 34.6257 32.704 34.1837C32.8901 33.7499 33.0439 33.3324 33.1572 32.874C33.4243 32.0145 33.5376 29.7553 32.4612 29.4524C32.4207 29.4361 32.3884 29.4361 32.3479 29.4279C31.9028 29.3951 31.6114 29.9108 31.3929 30.2301C31.1178 30.6393 30.8669 31.0486 30.5917 31.4497C30.3813 31.769 30.1628 32.0882 29.92 32.3829C29.4587 32.9395 29.0136 33.4879 28.5037 34.0036C27.2736 35.2642 26.618 36.2219 25.9625 37.8754C25.5255 38.9805 25.2746 40.2902 25.1694 41.6654C23.923 42.0255 22.6039 42.222 21.2361 42.222C19.8765 42.222 18.5573 42.0255 17.311 41.6654C17.2058 40.2902 16.9549 38.9805 16.5179 37.8754C15.8543 36.2219 15.2068 35.2642 13.9686 34.0036C13.4587 33.4879 13.0217 32.9395 12.5604 32.3829C12.3176 32.0882 12.0991 31.769 11.8887 31.4497C11.6135 31.0486 11.3545 30.6393 11.0875 30.2301C10.8689 29.9108 10.5776 29.3951 10.1244 29.4279C10.092 29.4361 10.0596 29.4361 10.0192 29.4524C8.9428 29.7553 9.04801 32.0145 9.32317 32.874C9.43647 33.3324 9.59024 33.7499 9.77638 34.1837C9.96252 34.6257 10.9499 36.1319 11.0146 36.6885C10.5452 36.6803 9.90587 36.2219 9.27461 35.5998C7.85024 33.3652 7.03284 30.7048 7.03284 27.8481C7.03284 26.6366 7.17851 25.4579 7.46177 24.3364L21.2361 32.6366L35.0186 24.3364Z" fill="currentColor"/>
<path fill-rule="evenodd" clip-rule="evenodd" d="M21.2362 0.000488281L8.31158 21.8315L21.2362 29.6242L34.1608 21.8315L21.2362 0.000488281ZM21.2362 4.93641L12.4148 19.8506L21.2362 15.0538V4.93641Z" fill="currentColor"/>
<path fill-rule="evenodd" clip-rule="evenodd" d="M12.1396 32.7429C12.6413 33.3568 12.9732 33.7825 13.5801 34.3964C14.7941 35.6406 15.3687 36.5001 16 38.0881C16.526 39.3978 16.785 41.1413 16.8093 42.9831C12.3419 43.2778 6.19119 39.0213 5.52756 37.4005C5.47091 37.3187 5.41425 37.2286 5.3576 37.1386C3.69853 34.6256 3.48811 30.9093 3.92513 27.7497C4.04653 26.882 4.41072 24.5 4.86393 23.927C7.76933 24.1726 4.435 28.601 6.46635 32.8575C7.08142 34.1426 9.56599 37.2532 11.0308 37.245C12.4633 37.2368 10.6019 34.7075 10.2863 33.9626C10.1001 33.5451 9.96255 33.1767 9.85734 32.7183C9.52552 31.7279 9.71166 30.1153 10.1649 29.9844C10.3591 29.9762 11.3303 31.7688 12.1396 32.7429Z" fill="currentColor"/>
<path fill-rule="evenodd" clip-rule="evenodd" d="M30.3408 32.7429C29.831 33.3568 29.4992 33.7825 28.9003 34.3964C27.6782 35.6406 27.1117 36.5001 26.4724 38.0881C25.9544 39.3978 25.6873 41.1413 25.6711 42.9831C30.1385 43.2778 36.2892 39.0213 36.9529 37.4005C37.0095 37.3187 37.0581 37.2286 37.1147 37.1386C38.7819 34.6256 38.9923 30.9093 38.5553 27.7497C38.4339 26.882 38.0616 24.5 37.6165 23.927C34.7111 24.1726 38.0454 28.601 36.0141 32.8575C35.399 34.1426 32.9144 37.2532 31.4496 37.245C30.0171 37.2368 31.8704 34.7075 32.1941 33.9626C32.3803 33.5451 32.5098 33.1767 32.6231 32.7183C32.9549 31.7279 32.7687 30.1153 32.3155 29.9844C32.1132 29.9762 31.142 31.7688 30.3408 32.7429Z" fill="currentColor"/>
<path fill-rule="evenodd" clip-rule="evenodd" d="M12.8356 12.9174L12.0667 12.058C13.7177 7.46583 11.565 5.86145 8.87808 2.81641C5.91602 5.57496 2.96206 8.33351 0 11.0839C2.43601 13.8261 4.71825 16.7238 8.86998 14.972L10.5291 16.8138L12.8356 12.9174ZM3.01061 12.6146C5.38997 10.3963 7.76933 8.18617 10.1487 5.96787C11.5488 7.89149 11.8725 10.5846 10.0111 12.7374C7.72077 14.751 4.96104 14.3499 3.01061 12.6146Z" fill="currentColor"/>
<path fill-rule="evenodd" clip-rule="evenodd" d="M29.6367 12.9174L30.4137 12.058C28.7627 7.46583 30.9154 5.86145 33.6023 2.81641C36.5563 5.57496 39.5183 8.33351 42.4804 11.0839C40.0444 13.8261 37.7621 16.7238 33.6104 14.972L31.9432 16.8138L29.6367 12.9174ZM39.4698 12.6146C37.0904 10.3963 34.703 8.18617 32.3236 5.96787C30.9316 7.89149 30.5998 10.5846 32.4693 12.7374C34.7596 14.751 37.5193 14.3499 39.4698 12.6146Z" fill="currentColor"/>
</svg>
