<svg width="24" height="24" viewBox="0 0 24 24" fill="none" xmlns="http://www.w3.org/2000/svg">
<g id="menu-svgrepo-com 1">
<path id="Vector (Stroke)" fill-rule="evenodd" clip-rule="evenodd" d="M4 6.85714C4 6.38376 4.39797 6 4.88889 6H19.1111C19.602 6 20 6.38376 20 6.85714C20 7.33053 19.602 7.71429 19.1111 7.71429H4.88889C4.39797 7.71429 4 7.33053 4 6.85714ZM4 12C4 11.5266 4.39797 11.1429 4.88889 11.1429H19.1111C19.602 11.1429 20 11.5266 20 12C20 12.4734 19.602 12.8571 19.1111 12.8571H4.88889C4.39797 12.8571 4 12.4734 4 12ZM4 17.1429C4 16.6695 4.39797 16.2857 4.88889 16.2857H19.1111C19.602 16.2857 20 16.6695 20 17.1429C20 17.6162 19.602 18 19.1111 18H4.88889C4.39797 18 4 17.6162 4 17.1429Z" fill="white"/>
</g>
</svg>
