<svg width="32" height="32" viewBox="0 0 32 32" fill="none" xmlns="http://www.w3.org/2000/svg">
<circle cx="16" cy="16" r="16" fill="white"/>
<path d="M24.7317 7.20703L17.4238 12.6347L18.7752 9.43245L24.7317 7.20703Z" fill="#E2761B" stroke="#E2761B" stroke-width="0.0734463" stroke-linecap="round" stroke-linejoin="round"/>
<path d="M7.86103 7.20703L15.1102 12.6861L13.8249 9.43245L7.86103 7.20703ZM22.1023 19.7884L20.1559 22.7703L24.3203 23.9161L25.5175 19.8545L22.1023 19.7884ZM7.08984 19.8545L8.27967 23.9161L12.4441 22.7703L10.4978 19.7884L7.08984 19.8545Z" fill="#E4761B" stroke="#E4761B" stroke-width="0.0734463" stroke-linecap="round" stroke-linejoin="round"/>
<path d="M12.2088 14.7503L11.0483 16.5056L15.1834 16.6892L15.0365 12.2457L12.2088 14.7503ZM20.3834 14.7503L17.519 12.1943L17.4235 16.6892L21.5512 16.5056L20.3834 14.7503ZM12.4438 22.7706L14.9263 21.5587L12.7817 19.8842L12.4438 22.7706ZM17.6659 21.5587L20.1557 22.7706L19.8105 19.8842L17.6659 21.5587Z" fill="#E4761B" stroke="#E4761B" stroke-width="0.0734463" stroke-linecap="round" stroke-linejoin="round"/>
<path d="M20.1562 22.7705L17.6664 21.5586L17.8647 23.1818L17.8426 23.8648L20.1562 22.7705ZM12.4443 22.7705L14.7579 23.8648L14.7432 23.1818L14.9268 21.5586L12.4443 22.7705Z" fill="#D7C1B3" stroke="#D7C1B3" stroke-width="0.0734463" stroke-linecap="round" stroke-linejoin="round"/>
<path d="M14.7943 18.8112L12.7231 18.2016L14.1847 17.5332L14.7943 18.8112ZM17.7983 18.8112L18.4079 17.5332L19.8768 18.2016L17.7983 18.8112Z" fill="#233447" stroke="#233447" stroke-width="0.0734463" stroke-linecap="round" stroke-linejoin="round"/>
<path d="M12.4444 22.7699L12.7969 19.7879L10.498 19.854L12.4444 22.7699ZM19.8037 19.7879L20.1562 22.7699L22.1026 19.854L19.8037 19.7879ZM21.5517 16.5049L17.424 16.6885L17.806 18.8111L18.4156 17.5331L19.8845 18.2015L21.5517 16.5049ZM12.7235 18.2015L14.1924 17.5331L14.7947 18.8111L15.1839 16.6885L11.0489 16.5049L12.7235 18.2015Z" fill="#CD6116" stroke="#CD6116" stroke-width="0.0734463" stroke-linecap="round" stroke-linejoin="round"/>
<path d="M11.0483 16.5049L12.7817 19.8834L12.7229 18.2015L11.0483 16.5049ZM19.8839 18.2015L19.8105 19.8834L21.5512 16.5049L19.8839 18.2015ZM15.1834 16.6885L14.7941 18.8111L15.2788 21.3156L15.389 18.0179L15.1834 16.6885ZM17.4235 16.6885L17.2252 18.0105L17.3133 21.3156L17.8054 18.8111L17.4235 16.6885Z" fill="#E4751F" stroke="#E4751F" stroke-width="0.0734463" stroke-linecap="round" stroke-linejoin="round"/>
<path d="M17.8056 18.8118L17.3135 21.3163L17.6661 21.5586L19.8107 19.8841L19.8842 18.2021L17.8056 18.8118ZM12.7231 18.2021L12.7819 19.8841L14.9265 21.5586L15.2791 21.3163L14.7943 18.8118L12.7231 18.2021Z" fill="#F6851B" stroke="#F6851B" stroke-width="0.0734463" stroke-linecap="round" stroke-linejoin="round"/>
<path d="M17.8426 23.8649L17.8647 23.1818L17.6811 23.0202H14.9121L14.7432 23.1818L14.7579 23.8649L12.4443 22.7705L13.2522 23.4315L14.8901 24.5699H17.7031L19.3483 23.4315L20.1562 22.7705L17.8426 23.8649Z" fill="#C0AD9E" stroke="#C0AD9E" stroke-width="0.0734463" stroke-linecap="round" stroke-linejoin="round"/>
<path d="M17.6663 21.5578L17.3138 21.3154H15.2793L14.9268 21.5578L14.7432 23.181L14.9121 23.0194H17.681L17.8646 23.181L17.6663 21.5578Z" fill="#161616" stroke="#161616" stroke-width="0.0734463" stroke-linecap="round" stroke-linejoin="round"/>
<path d="M25.0401 12.9873L25.6644 9.99065L24.7316 7.20703L17.6661 12.4511L20.3836 14.75L24.2248 15.8737L25.0768 14.8822L24.7096 14.6178L25.2971 14.0816L24.8418 13.7291L25.4293 13.281L25.0401 12.9873ZM6.93555 9.99065L7.55984 12.9873L7.16323 13.281L7.7508 13.7291L7.30278 14.0816L7.89035 14.6178L7.52312 14.8822L8.36775 15.8737L12.209 14.75L14.9265 12.4511L7.86097 7.20703L6.93555 9.99065Z" fill="#763D16" stroke="#763D16" stroke-width="0.0734463" stroke-linecap="round" stroke-linejoin="round"/>
<path d="M24.2249 15.8739L20.3836 14.7501L21.5514 16.5055L19.8107 19.884L22.1023 19.8546H25.5175L24.2249 15.8739ZM12.2091 14.7501L8.36781 15.8739L7.08984 19.8546H10.4978L12.7819 19.884L11.0486 16.5055L12.2091 14.7501ZM17.4237 16.6891L17.6661 12.4513L18.7825 9.43262H13.8249L14.9266 12.4513L15.1836 16.6891L15.2718 18.0258L15.2791 21.3162H17.3136L17.3283 18.0258L17.4237 16.6891Z" fill="#F6851B" stroke="#F6851B" stroke-width="0.0734463" stroke-linecap="round" stroke-linejoin="round"/>
</svg>
