<svg width="32" height="32" viewBox="0 0 32 32" fill="none" xmlns="http://www.w3.org/2000/svg">
<g clip-path="url(#clip0_619_4151)">
<path d="M16.0062 31.9879C24.8321 31.9879 31.9869 24.8331 31.9869 16.0071C31.9869 7.18121 24.8321 0.0263672 16.0062 0.0263672C7.18023 0.0263672 0.0253906 7.18121 0.0253906 16.0071C0.0253906 24.8331 7.18023 31.9879 16.0062 31.9879Z" fill="#3396FF" stroke="#66B1FF" stroke-width="0.0384461" stroke-miterlimit="22.9256"/>
<path d="M9.79056 11.9188C13.2123 8.57395 18.7741 8.57395 22.2087 11.9188L22.6187 12.316C22.7854 12.4826 22.7854 12.7518 22.6187 12.9184L21.2091 14.2896C21.1194 14.3793 20.9784 14.3793 20.9015 14.2896L20.3376 13.7386C17.9411 11.4062 14.0709 11.4062 11.6744 13.7386L11.0721 14.3281C10.9824 14.4178 10.8414 14.4178 10.7645 14.3281L9.35483 12.9568C9.18823 12.7902 9.18823 12.5211 9.35483 12.3545L9.80337 11.9188H9.79056ZM25.1177 14.7638L26.3737 15.9941C26.5403 16.1607 26.5403 16.4298 26.3737 16.5964L20.7093 22.1198C20.5427 22.2864 20.2607 22.2864 20.0941 22.1198L16.0701 18.1983C16.0316 18.1599 15.9548 18.1599 15.9163 18.1983L11.8923 22.1198C11.7257 22.2864 11.4437 22.2864 11.2771 22.1198L5.61274 16.5964C5.44614 16.4298 5.44614 16.1607 5.61274 15.9941L6.86865 14.7638C7.03525 14.5972 7.31719 14.5972 7.48379 14.7638L11.5078 18.6853C11.5463 18.7237 11.6232 18.7237 11.6616 18.6853L15.6856 14.7638C15.8522 14.5972 16.1342 14.5972 16.3008 14.7638L20.3248 18.6853C20.3632 18.7237 20.4401 18.7237 20.4786 18.6853L24.5026 14.7638C24.6692 14.5972 24.9511 14.5972 25.1177 14.7638Z" fill="white"/>
</g>
<defs>
<clipPath id="clip0_619_4151">
<rect width="32" height="32" fill="white"/>
</clipPath>
</defs>
</svg>
