<svg width="50" height="50" viewBox="0 0 50 50" fill="none" xmlns="http://www.w3.org/2000/svg">
<mask id="mask0_16_3" style="mask-type:luminance" maskUnits="userSpaceOnUse" x="0" y="0" width="50" height="50">
<path d="M50 0H0V50H50V0Z" fill="white"/>
</mask>
<g mask="url(#mask0_16_3)">
<path d="M37.6207 49.9999H12.3793C5.55335 49.9999 0 44.447 0 37.6208V12.3796C0 5.55349 5.55335 0.00012207 12.3793 0.00012207H37.6207C44.4467 0.00012207 50 5.55349 50 12.3796V37.6208C50 44.447 44.4467 49.9999 37.6207 49.9999Z" fill="#472A91"/>
<path d="M32.8083 15.8237L30.3429 25.0827L27.8695 15.8237H22.1774L19.6803 25.1509L17.1913 15.8237H10.7082L16.7325 36.2954H22.3256L25.0001 26.7891L27.6745 36.2954H33.2797L39.2907 15.8237H32.8083Z" fill="white"/>
</g>
</svg>
