<svg width="50" height="51" viewBox="0 0 50 51" fill="none" xmlns="http://www.w3.org/2000/svg">
<g clip-path="url(#clip0_11_2)">
<rect x="7.91088" y="9.04166" width="33.6749" height="32.1782" fill="white"/>
<path d="M22.3333 0.477842C13.5493 1.39451 5.70067 7.17751 2.13267 15.3612C-0.166666 20.6445 -0.549332 26.7278 1.08333 32.3282C3.1 39.3112 8.31667 45.2108 15.0667 48.1615C20.35 50.4608 26.4333 50.8435 32.034 49.2108C40.4167 46.7942 47.017 39.9115 49.1837 31.3608C52.5663 17.9612 44.2667 4.26018 30.8333 1.06118C27.8827 0.361175 25.284 0.177508 22.3333 0.477842ZM22.6667 15.9612C24.7993 18.7945 26.6 21.1278 26.6667 21.1278C26.7333 21.1278 28.9507 18.7945 31.5667 15.9612L36.35 10.7945H39.0667L38.4833 11.4118C38.15 11.7605 35.9833 14.1108 33.6667 16.6278C31.35 19.1445 29.0833 21.5938 28.6327 22.0445L27.8333 22.8945L34.0833 31.2112C37.5167 35.7945 40.3333 39.5938 40.3333 39.6618C40.3333 39.7452 38.284 39.7945 35.7993 39.7945L31.25 39.7778L27.0167 34.1112C24.1 30.1945 22.7333 28.5102 22.6 28.6112C22.5 28.6945 20.1327 31.2452 17.3333 34.2778L12.25 39.7945H10.966C10.25 39.7945 9.66667 39.7605 9.66667 39.7112C9.66667 39.6618 12.3167 36.7605 15.5493 33.2778C18.767 29.7945 21.4337 26.8778 21.466 26.8285C21.4833 26.7605 18.8333 23.1445 15.5833 18.7945C12.3333 14.4612 9.66667 10.8778 9.66667 10.8438C9.66667 10.8115 11.716 10.7945 14.2333 10.7945H18.7993L22.6667 15.9612Z" fill="black"/>
<path d="M13.784 13.0278C13.8503 13.1445 18.0493 18.7778 23.0833 25.5105L32.25 37.7775L34.2993 37.7945C35.5663 37.7945 36.3333 37.7278 36.2993 37.6278C36.284 37.5445 32.1003 31.9118 27.034 25.1278L17.7993 12.7945H15.7333C14.0173 12.7945 13.6667 12.8285 13.784 13.0278Z" fill="black"/>
</g>
<defs>
<clipPath id="clip0_11_2">
<rect width="50" height="50" fill="white" transform="translate(0 0.294495)"/>
</clipPath>
</defs>
</svg>
